# xmcd
#
# Track frame offsets: 
#        150
#        14592
#        31053
#        48180
#        68773
#        90248
#        106739
#        119813
#        139392
#        153167
#        169373
#        190123
#        205660
#
# Disc length: 3008 seconds
#
# Revision: 9
# Processed by: cddbd v1.5.2PL0 Copyright (c) Steve Scherf et al.
# Submitted via: ExactAudioCopy v1.3
#
DISCID=a70bbe0d
DTITLE=Feist - The Reminder
DYEAR=2007
DGENRE=Pop-Folk
TTITLE0=So Sorry
TTITLE1=I Feel It All
TTITLE2=My Moon My Man
TTITLE3=The Park
TTITLE4=The Water
TTITLE5=Sealion
TTITLE6=Past In Present
TTITLE7=The Limit To Your Love
TTITLE8=1234
TTITLE9=Brandy Alexander
TTITLE10=Intuition
TTITLE11=Honey Honey
TTITLE12=How My Heart Behaves
EXTD=YEAR: 2007
EXTT0=
EXTT1=
EXTT2=
EXTT3=
EXTT4=
EXTT5=
EXTT6=
EXTT7=
EXTT8=
EXTT9=
EXTT10=
EXTT11=
EXTT12=
PLAYORDER=
